<svg xmlns="http://www.w3.org/2000/svg" xmlns:xlink="http://www.w3.org/1999/xlink" width="500" zoomAndPan="magnify" viewBox="0 0 375 374.999991" height="500" preserveAspectRatio="xMidYMid meet" version="1.0"><defs><clipPath id="2b9c144aba"><path d="M 48.023438 27.273438 L 332.273438 27.273438 L 332.273438 311.523438 L 48.023438 311.523438 Z M 48.023438 27.273438 " clip-rule="nonzero"/></clipPath></defs><g clip-path="url(#2b9c144aba)"><path fill="#00bf63" d="M 48.023438 264.363281 L 48.023438 232.75 C 48.023438 224.011719 55.09375 216.945312 63.828125 216.945312 C 72.566406 216.945312 79.636719 224.011719 79.636719 232.75 L 79.636719 264.363281 C 79.636719 273.082031 86.71875 280.167969 95.441406 280.167969 L 285.113281 280.167969 C 293.835938 280.167969 300.917969 273.082031 300.917969 264.363281 L 300.917969 232.75 C 300.917969 224.011719 307.988281 216.945312 316.726562 216.945312 C 325.460938 216.945312 332.53125 224.011719 332.53125 232.75 L 332.53125 264.363281 C 332.53125 290.507812 311.261719 311.78125 285.113281 311.78125 L 95.441406 311.78125 C 69.292969 311.78125 48.023438 290.507812 48.023438 264.363281 Z M 100.070312 110.933594 C 93.898438 117.105469 93.898438 127.109375 100.070312 133.28125 L 179.101562 212.3125 C 182.1875 215.398438 186.234375 216.945312 190.277344 216.945312 C 194.320312 216.945312 198.367188 215.398438 201.453125 212.3125 L 280.480469 133.28125 C 286.65625 127.109375 286.65625 117.105469 280.480469 110.933594 C 274.308594 104.757812 264.304688 104.757812 258.132812 110.933594 L 206.082031 162.980469 L 206.082031 43.078125 C 206.082031 34.339844 199.011719 27.273438 190.277344 27.273438 C 181.539062 27.273438 174.472656 34.339844 174.472656 43.078125 L 174.472656 162.980469 L 122.421875 110.933594 C 116.25 104.757812 106.246094 104.757812 100.070312 110.933594 Z M 100.070312 110.933594 " fill-opacity="1" fill-rule="nonzero"/></g></svg>