<svg xmlns="http://www.w3.org/2000/svg" xmlns:xlink="http://www.w3.org/1999/xlink" width="500" zoomAndPan="magnify" viewBox="0 0 375 374.999991" height="500" preserveAspectRatio="xMidYMid meet" version="1.0"><defs><clipPath id="c872ef0f78"><path d="M 49.410156 152 L 315.660156 152 L 315.660156 337.78125 L 49.410156 337.78125 Z M 49.410156 152 " clip-rule="nonzero"/></clipPath><clipPath id="5a302074e2"><path d="M 93 26.53125 L 272 26.53125 L 272 183 L 93 183 Z M 93 26.53125 " clip-rule="nonzero"/></clipPath></defs><g clip-path="url(#c872ef0f78)"><path fill="#5e17eb" d="M 49.410156 167.222656 C 49.410156 159.050781 56.035156 152.425781 64.207031 152.425781 L 300.914062 152.425781 C 309.085938 152.425781 315.707031 159.050781 315.707031 167.222656 L 315.707031 322.5625 C 315.707031 330.730469 309.085938 337.355469 300.914062 337.355469 L 64.207031 337.355469 C 56.035156 337.355469 49.410156 330.730469 49.410156 322.5625 Z M 79 182.015625 L 79 307.765625 L 286.121094 307.765625 L 286.121094 182.015625 Z M 79 182.015625 " fill-opacity="1" fill-rule="evenodd"/></g><g clip-path="url(#5a302074e2)"><path fill="#5e17eb" d="M 93.792969 100.648438 C 93.792969 59.792969 126.910156 26.675781 167.765625 26.675781 L 197.355469 26.675781 C 238.207031 26.675781 271.324219 59.792969 271.324219 100.648438 L 271.324219 167.222656 C 271.324219 175.390625 264.703125 182.015625 256.53125 182.015625 L 108.589844 182.015625 C 100.417969 182.015625 93.792969 175.390625 93.792969 167.222656 Z M 167.765625 56.265625 C 143.253906 56.265625 123.382812 76.136719 123.382812 100.648438 L 123.382812 152.425781 L 241.738281 152.425781 L 241.738281 100.648438 C 241.738281 76.136719 221.867188 56.265625 197.355469 56.265625 Z M 167.765625 56.265625 " fill-opacity="1" fill-rule="evenodd"/></g></svg>