<svg xmlns="http://www.w3.org/2000/svg" xmlns:xlink="http://www.w3.org/1999/xlink" width="500" zoomAndPan="magnify" viewBox="0 0 375 374.999991" height="500" preserveAspectRatio="xMidYMid meet" version="1.0"><defs><clipPath id="4c51f1af18"><path d="M 46 23.609375 L 329 23.609375 L 329 343.859375 L 46 343.859375 Z M 46 23.609375 " clip-rule="nonzero"/></clipPath></defs><g clip-path="url(#4c51f1af18)"><path fill="#f4b400" d="M 178.429688 79.082031 C 196.03125 90.285156 208.296875 108.953125 210.433594 130.289062 C 217.367188 133.488281 225.367188 135.621094 233.902344 135.621094 C 264.835938 135.621094 289.90625 110.554688 289.90625 79.617188 C 289.90625 48.679688 264.835938 23.609375 233.902344 23.609375 C 203.496094 24.144531 178.429688 48.679688 178.429688 79.082031 Z M 141.625 193.226562 C 172.5625 193.226562 197.628906 168.160156 197.628906 137.222656 C 197.628906 106.285156 172.5625 81.21875 141.625 81.21875 C 110.6875 81.21875 85.617188 106.285156 85.617188 137.222656 C 85.617188 168.160156 110.6875 193.226562 141.625 193.226562 Z M 165.09375 196.960938 L 117.621094 196.960938 C 78.152344 196.960938 46.148438 228.964844 46.148438 268.4375 L 46.148438 327.640625 L 49.882812 328.710938 C 87.21875 340.445312 120.289062 344.175781 146.957031 344.175781 C 199.230469 344.175781 229.632812 329.242188 231.765625 328.175781 L 235.5 326.042969 L 236.035156 326.042969 L 236.035156 268.4375 C 236.566406 228.964844 204.566406 196.960938 165.09375 196.960938 Z M 257.371094 139.355469 L 210.433594 139.355469 C 209.898438 158.023438 201.898438 175.09375 189.097656 187.359375 C 224.300781 198.027344 249.902344 230.03125 249.902344 268.4375 L 249.902344 286.039062 C 296.308594 284.4375 322.976562 271.101562 324.578125 270.570312 L 328.3125 268.4375 L 328.84375 268.4375 L 328.84375 210.832031 C 328.84375 171.359375 296.839844 139.355469 257.371094 139.355469 Z M 257.371094 139.355469 " fill-opacity="1" fill-rule="nonzero"/></g></svg>