<svg xmlns="http://www.w3.org/2000/svg" xmlns:xlink="http://www.w3.org/1999/xlink" width="500" zoomAndPan="magnify" viewBox="0 0 375 374.999991" height="500" preserveAspectRatio="xMidYMid meet" version="1.0"><defs><clipPath id="f9770bf0bb"><path d="M 50.683594 32 L 290 32 L 290 323 L 50.683594 323 Z M 50.683594 32 " clip-rule="nonzero"/></clipPath></defs><path fill="#5e17eb" d="M 197.273438 242.746094 L 231.511719 229.199219 L 203.199219 200.886719 L 189.679688 235.125 C 186.953125 242.046875 190.378906 245.472656 197.273438 242.746094 Z M 197.273438 242.746094 " fill-opacity="1" fill-rule="nonzero"/><g clip-path="url(#f9770bf0bb)"><path fill="#5e17eb" d="M 202.253906 255.308594 C 199.074219 256.539062 195.984375 257.179688 193.042969 257.179688 C 186.90625 257.179688 181.535156 254.429688 178.277344 249.65625 C 176.191406 246.574219 173.25 239.9375 177.117188 230.160156 L 182.851562 215.617188 L 92.746094 215.617188 L 92.746094 202.117188 L 188.183594 202.117188 L 191.679688 193.300781 L 232.378906 152.605469 L 92.746094 152.605469 L 92.746094 139.117188 L 245.890625 139.117188 L 289.265625 95.742188 L 289.265625 48.609375 C 289.265625 39.625 282 32.335938 272.992188 32.335938 L 66.957031 32.335938 C 57.972656 32.335938 50.683594 39.625 50.683594 48.609375 L 50.683594 306.140625 C 50.683594 315.121094 57.972656 322.410156 66.957031 322.410156 L 272.992188 322.410156 C 282 322.410156 289.265625 315.121094 289.265625 306.140625 L 289.265625 190.5625 L 239.085938 240.742188 Z M 92.746094 76.078125 L 247.226562 76.078125 L 247.226562 89.578125 L 92.746094 89.578125 Z M 169.980469 278.667969 L 92.746094 278.667969 L 92.746094 265.167969 L 169.992188 265.167969 L 169.992188 278.667969 Z M 169.980469 278.667969 " fill-opacity="1" fill-rule="nonzero"/></g><path fill="#5e17eb" d="M 332.039062 109.582031 L 322.851562 100.363281 C 317.601562 95.113281 308.984375 95.113281 303.757812 100.363281 L 212.765625 191.359375 L 241.078125 219.671875 L 332.050781 128.675781 C 337.300781 123.425781 337.300781 114.832031 332.039062 109.582031 Z M 332.039062 109.582031 " fill-opacity="1" fill-rule="nonzero"/></svg>