<svg xmlns="http://www.w3.org/2000/svg" xmlns:xlink="http://www.w3.org/1999/xlink" width="500" zoomAndPan="magnify" viewBox="0 0 375 374.999991" height="500" preserveAspectRatio="xMidYMid meet" version="1.0"><defs><clipPath id="a79ecf1f7a"><path d="M 67 35 L 307.75 35 L 307.75 337.832031 L 67 337.832031 Z M 67 35 " clip-rule="nonzero"/></clipPath></defs><g clip-path="url(#a79ecf1f7a)"><path fill="#f4b400" d="M 79.542969 90.492188 L 79.542969 175.835938 C 79.542969 237.875 118.230469 293.875 180.5 321.964844 C 182.761719 322.992188 185.074219 323.988281 187.433594 324.972656 C 189.792969 323.988281 192.097656 322.992188 194.363281 321.96875 C 256.636719 293.875 295.324219 237.875 295.324219 175.835938 L 295.324219 90.492188 L 187.433594 47.585938 Z M 187.433594 337.566406 C 186.65625 337.566406 185.890625 337.417969 185.160156 337.121094 C 181.859375 335.777344 178.652344 334.402344 175.523438 332.992188 C 108.855469 302.921875 67.4375 242.699219 67.4375 175.835938 L 67.4375 86.382812 C 67.4375 83.90625 68.953125 81.679688 71.253906 80.757812 L 185.195312 35.457031 C 186.632812 34.878906 188.234375 34.878906 189.671875 35.457031 L 303.609375 80.757812 C 305.914062 81.679688 307.429688 83.90625 307.429688 86.382812 L 307.429688 175.835938 C 307.429688 242.699219 266.011719 302.921875 199.335938 333 C 196.214844 334.402344 193.007812 335.777344 189.707031 337.121094 C 188.976562 337.417969 188.210938 337.566406 187.433594 337.566406 " fill-opacity="1" fill-rule="nonzero"/></g></svg>