<svg xmlns="http://www.w3.org/2000/svg" xmlns:xlink="http://www.w3.org/1999/xlink" width="500" zoomAndPan="magnify" viewBox="0 0 375 374.999991" height="500" preserveAspectRatio="xMidYMid meet" version="1.0"><defs><clipPath id="efaf732514"><path d="M 37.5 68.597656 L 346.5 68.597656 L 346.5 306.347656 L 37.5 306.347656 Z M 37.5 68.597656 " clip-rule="nonzero"/></clipPath></defs><g clip-path="url(#efaf732514)"><path fill="#2e5a88" d="M 344.457031 84.136719 C 342.941406 82.835938 340.933594 82.285156 338.957031 82.542969 L 319.351562 85.476562 L 319.351562 75.78125 C 319.351562 73.746094 318.457031 71.824219 316.898438 70.511719 C 315.339844 69.214844 313.292969 68.648438 311.289062 69.019531 L 252.582031 79.410156 C 225.042969 84.304688 202.832031 102.589844 192.171875 126.859375 C 181.507812 102.589844 159.300781 84.304688 131.757812 79.410156 L 73.054688 69.019531 C 71.050781 68.636719 69.003906 69.214844 67.445312 70.511719 C 65.890625 71.824219 64.996094 73.746094 64.996094 75.78125 L 64.996094 85.476562 L 45.382812 82.542969 C 43.417969 82.285156 41.402344 82.835938 39.882812 84.136719 C 38.375 85.441406 37.5 87.339844 37.5 89.339844 L 37.5 259.707031 C 37.5 263.136719 40.03125 266.039062 43.425781 266.511719 L 140.925781 280.03125 C 159.847656 282.648438 176.5625 291.296875 186.796875 303.757812 C 186.8125 303.785156 186.835938 303.808594 186.855469 303.832031 C 186.9375 303.933594 187.027344 304.03125 187.113281 304.128906 C 187.203125 304.226562 187.292969 304.316406 187.386719 304.40625 C 187.484375 304.507812 187.582031 304.601562 187.691406 304.6875 C 187.769531 304.753906 187.847656 304.820312 187.929688 304.882812 C 188.113281 305.03125 188.300781 305.164062 188.5 305.289062 C 188.550781 305.320312 188.605469 305.355469 188.65625 305.382812 C 188.808594 305.476562 188.964844 305.5625 189.125 305.640625 C 189.203125 305.679688 189.285156 305.71875 189.367188 305.75 C 189.53125 305.824219 189.695312 305.894531 189.867188 305.957031 C 190.082031 306.03125 190.304688 306.101562 190.527344 306.152344 C 190.59375 306.171875 190.660156 306.1875 190.722656 306.203125 C 190.832031 306.226562 190.941406 306.246094 191.046875 306.261719 C 191.164062 306.285156 191.28125 306.300781 191.398438 306.308594 C 191.546875 306.332031 191.691406 306.339844 191.839844 306.347656 C 191.949219 306.351562 192.058594 306.359375 192.171875 306.359375 C 192.285156 306.359375 192.398438 306.351562 192.503906 306.347656 C 192.652344 306.339844 192.800781 306.332031 192.945312 306.308594 C 193.0625 306.300781 193.179688 306.285156 193.296875 306.261719 C 193.40625 306.246094 193.511719 306.222656 193.621094 306.203125 C 193.6875 306.1875 193.75 306.171875 193.816406 306.152344 C 194.214844 306.058594 194.601562 305.925781 194.980469 305.75 C 195.0625 305.71875 195.144531 305.679688 195.222656 305.640625 C 195.382812 305.5625 195.539062 305.476562 195.6875 305.382812 C 195.742188 305.355469 195.792969 305.320312 195.84375 305.289062 C 196.109375 305.125 196.359375 304.941406 196.597656 304.734375 C 196.648438 304.695312 196.699219 304.652344 196.75 304.605469 C 197.011719 304.371094 197.261719 304.113281 197.492188 303.832031 C 207.710938 291.332031 224.453125 282.652344 243.421875 280.03125 L 340.914062 266.511719 C 344.316406 266.039062 346.839844 263.136719 346.839844 259.707031 L 346.839844 89.339844 C 346.839844 87.339844 345.972656 85.441406 344.457031 84.136719 Z M 78.730469 87.53125 L 78.730469 83.96875 L 129.355469 92.929688 C 145.605469 95.824219 159.617188 104.3125 169.550781 116.207031 C 179.449219 128.042969 185.304688 143.257812 185.304688 159.671875 L 185.304688 260.789062 C 176.027344 253.253906 164.625 248.101562 152.335938 246.101562 L 78.730469 234.019531 Z M 214.804688 116.1875 C 224.742188 104.304688 238.746094 95.816406 254.980469 92.929688 L 305.613281 83.96875 L 305.613281 234.019531 L 232.011719 246.09375 C 219.714844 248.113281 208.316406 253.253906 199.039062 260.789062 L 199.039062 159.671875 C 199.039062 143.25 204.902344 128.035156 214.800781 116.191406 C 214.800781 116.191406 214.800781 116.1875 214.804688 116.1875 Z M 142.804688 266.429688 L 51.238281 253.726562 L 51.238281 97.3125 L 64.996094 99.375 L 64.996094 239.855469 C 64.996094 243.21875 67.429688 246.082031 70.746094 246.628906 L 150.113281 259.65625 C 164.378906 261.988281 177.089844 269.503906 185.304688 280.394531 L 185.304688 283.480469 C 173.648438 274.664062 158.851562 268.644531 142.804688 266.429688 Z M 333.105469 253.726562 L 241.539062 266.429688 C 225.488281 268.644531 210.695312 274.660156 199.039062 283.480469 L 199.039062 280.394531 C 207.253906 269.503906 219.964844 261.988281 234.230469 259.648438 L 313.597656 246.628906 C 316.914062 246.082031 319.351562 243.21875 319.351562 239.855469 L 319.351562 99.375 L 333.105469 97.3125 Z M 333.105469 253.726562 " fill-opacity="1" fill-rule="nonzero"/></g></svg>