<svg xmlns="http://www.w3.org/2000/svg" xmlns:xlink="http://www.w3.org/1999/xlink" width="500" zoomAndPan="magnify" viewBox="0 0 375 374.999991" height="500" preserveAspectRatio="xMidYMid meet" version="1.0"><defs><clipPath id="726545a20b"><path d="M 52.316406 28.511719 L 322.316406 28.511719 L 322.316406 337.511719 L 52.316406 337.511719 Z M 52.316406 28.511719 " clip-rule="nonzero"/></clipPath></defs><g clip-path="url(#726545a20b)"><path fill="#5e17eb" d="M 255.078125 52.328125 C 222.035156 51.683594 196.285156 34.519531 187.488281 28.511719 C 178.691406 34.519531 152.945312 51.683594 119.902344 52.328125 C 83.640625 53.1875 60.894531 44.390625 52.3125 38.597656 L 52.3125 156.605469 C 52.3125 231.277344 110.246094 315.601562 187.488281 337.488281 C 226.109375 326.542969 260.011719 299.9375 284.042969 266.894531 C 308.074219 233.851562 322.664062 193.941406 322.664062 156.605469 L 322.664062 38.597656 C 314.082031 44.390625 291.339844 53.1875 255.078125 52.328125 Z M 308.074219 156.605469 C 308.074219 189.863281 294.988281 226.984375 272.242188 258.3125 C 249.5 289.640625 219.460938 312.167969 187.488281 322.46875 C 155.304688 312.382812 125.480469 289.640625 102.734375 258.527344 C 79.992188 227.414062 66.902344 189.863281 66.902344 156.605469 L 66.902344 60.480469 C 82.566406 64.988281 98.871094 67.132812 115.179688 66.917969 L 120.328125 66.917969 C 142.859375 66.273438 165.816406 58.980469 187.488281 45.675781 C 209.160156 58.980469 232.117188 66.273438 254.648438 66.703125 L 259.796875 66.703125 C 276.105469 66.917969 292.410156 64.773438 308.074219 60.265625 Z M 293.699219 78.71875 L 293.699219 156.605469 C 293.699219 187.074219 281.683594 220.976562 260.65625 249.730469 C 240.703125 276.980469 214.953125 297.148438 187.488281 307.019531 C 160.023438 297.148438 134.277344 276.980469 114.320312 249.730469 C 93.292969 220.976562 81.277344 186.863281 81.277344 156.605469 L 81.277344 78.71875 C 92.4375 80.652344 103.808594 81.507812 115.179688 81.507812 L 120.542969 81.507812 C 144.144531 80.652344 166.890625 74.214844 187.488281 62.628906 C 207.871094 74.214844 230.832031 80.652344 254.433594 81.507812 L 259.796875 81.507812 C 271.171875 81.507812 282.542969 80.4375 293.699219 78.71875 Z M 293.699219 78.71875 " fill-opacity="1" fill-rule="nonzero"/></g></svg>