<svg xmlns="http://www.w3.org/2000/svg" xmlns:xlink="http://www.w3.org/1999/xlink" width="500" zoomAndPan="magnify" viewBox="0 0 375 374.999991" height="500" preserveAspectRatio="xMidYMid meet" version="1.0"><defs><clipPath id="4aaf225758"><path d="M 34.105469 30.707031 L 340.855469 30.707031 L 340.855469 337.457031 L 34.105469 337.457031 Z M 34.105469 30.707031 " clip-rule="nonzero"/></clipPath></defs><path fill="#00bf63" d="M 254.1875 110.738281 L 120.804688 110.738281 C 117.125 110.738281 114.136719 113.726562 114.136719 117.410156 L 114.136719 250.792969 C 114.136719 254.480469 117.125 257.464844 120.804688 257.464844 L 254.1875 257.464844 C 257.878906 257.464844 260.859375 254.480469 260.859375 250.792969 L 260.859375 117.410156 C 260.859375 113.726562 257.878906 110.738281 254.1875 110.738281 Z M 247.519531 244.125 L 127.472656 244.125 L 127.472656 124.078125 L 247.519531 124.078125 Z M 247.519531 244.125 " fill-opacity="1" fill-rule="nonzero"/><g clip-path="url(#4aaf225758)"><path fill="#00bf63" d="M 334.21875 150.753906 C 337.910156 150.753906 340.890625 147.765625 340.890625 144.085938 C 340.890625 140.40625 337.910156 137.417969 334.21875 137.417969 L 300.875 137.417969 L 300.875 110.738281 L 334.21875 110.738281 C 337.910156 110.738281 340.890625 107.75 340.890625 104.070312 C 340.890625 100.390625 337.910156 97.402344 334.21875 97.402344 L 300.875 97.402344 L 300.875 90.730469 C 300.875 79.699219 291.898438 70.722656 280.867188 70.722656 L 274.195312 70.722656 L 274.195312 37.378906 C 274.195312 33.695312 271.214844 30.707031 267.527344 30.707031 C 263.839844 30.707031 260.859375 33.695312 260.859375 37.378906 L 260.859375 70.722656 L 234.179688 70.722656 L 234.179688 37.378906 C 234.179688 33.695312 231.199219 30.707031 227.511719 30.707031 C 223.824219 30.707031 220.84375 33.695312 220.84375 37.378906 L 220.84375 70.722656 L 194.167969 70.722656 L 194.167969 37.378906 C 194.167969 33.695312 191.179688 30.707031 187.496094 30.707031 C 183.816406 30.707031 180.828125 33.695312 180.828125 37.378906 L 180.828125 70.722656 L 154.152344 70.722656 L 154.152344 37.378906 C 154.152344 33.695312 151.164062 30.707031 147.480469 30.707031 C 143.800781 30.707031 140.8125 33.695312 140.8125 37.378906 L 140.8125 70.722656 L 114.136719 70.722656 L 114.136719 37.378906 C 114.136719 33.695312 111.148438 30.707031 107.464844 30.707031 C 103.785156 30.707031 100.796875 33.695312 100.796875 37.378906 L 100.796875 70.722656 L 94.128906 70.722656 C 83.097656 70.722656 74.121094 79.699219 74.121094 90.730469 L 74.121094 97.402344 L 40.773438 97.402344 C 37.09375 97.402344 34.105469 100.390625 34.105469 104.070312 C 34.105469 107.75 37.09375 110.738281 40.773438 110.738281 L 74.121094 110.738281 L 74.121094 137.417969 L 40.773438 137.417969 C 37.09375 137.417969 34.105469 140.40625 34.105469 144.085938 C 34.105469 147.765625 37.09375 150.753906 40.773438 150.753906 L 74.121094 150.753906 L 74.121094 177.433594 L 40.773438 177.433594 C 37.09375 177.433594 34.105469 180.417969 34.105469 184.101562 C 34.105469 187.78125 37.09375 190.769531 40.773438 190.769531 L 74.121094 190.769531 L 74.121094 217.449219 L 40.773438 217.449219 C 37.09375 217.449219 34.105469 220.429688 34.105469 224.117188 C 34.105469 227.804688 37.09375 230.785156 40.773438 230.785156 L 74.121094 230.785156 L 74.121094 257.464844 L 40.773438 257.464844 C 37.09375 257.464844 34.105469 260.445312 34.105469 264.132812 C 34.105469 267.820312 37.09375 270.800781 40.773438 270.800781 L 74.121094 270.800781 L 74.121094 277.46875 C 74.121094 288.5 83.097656 297.476562 94.128906 297.476562 L 100.796875 297.476562 L 100.796875 330.824219 C 100.796875 334.511719 103.785156 337.492188 107.464844 337.492188 C 111.148438 337.492188 114.136719 334.511719 114.136719 330.824219 L 114.136719 297.476562 L 140.8125 297.476562 L 140.8125 330.824219 C 140.8125 334.511719 143.800781 337.492188 147.480469 337.492188 C 151.164062 337.492188 154.152344 334.511719 154.152344 330.824219 L 154.152344 297.476562 L 180.828125 297.476562 L 180.828125 330.824219 C 180.828125 334.511719 183.816406 337.492188 187.496094 337.492188 C 191.179688 337.492188 194.167969 334.511719 194.167969 330.824219 L 194.167969 297.476562 L 220.84375 297.476562 L 220.84375 330.824219 C 220.84375 334.511719 223.824219 337.492188 227.511719 337.492188 C 231.199219 337.492188 234.179688 334.511719 234.179688 330.824219 L 234.179688 297.476562 L 260.859375 297.476562 L 260.859375 330.824219 C 260.859375 334.511719 263.839844 337.492188 267.527344 337.492188 C 271.214844 337.492188 274.195312 334.511719 274.195312 330.824219 L 274.195312 297.476562 L 280.867188 297.476562 C 291.898438 297.476562 300.875 288.5 300.875 277.46875 L 300.875 270.800781 L 334.21875 270.800781 C 337.910156 270.800781 340.890625 267.820312 340.890625 264.132812 C 340.890625 260.445312 337.910156 257.464844 334.21875 257.464844 L 300.875 257.464844 L 300.875 230.785156 L 334.21875 230.785156 C 337.910156 230.785156 340.890625 227.804688 340.890625 224.117188 C 340.890625 220.429688 337.910156 217.449219 334.21875 217.449219 L 300.875 217.449219 L 300.875 190.769531 L 334.21875 190.769531 C 337.910156 190.769531 340.890625 187.78125 340.890625 184.101562 C 340.890625 180.417969 337.910156 177.433594 334.21875 177.433594 L 300.875 177.433594 L 300.875 150.753906 Z M 287.535156 277.46875 C 287.535156 281.152344 284.546875 284.140625 280.867188 284.140625 L 94.128906 284.140625 C 90.453125 284.140625 87.457031 281.152344 87.457031 277.46875 L 87.457031 90.730469 C 87.457031 87.058594 90.453125 84.0625 94.128906 84.0625 L 280.867188 84.0625 C 284.546875 84.0625 287.535156 87.058594 287.535156 90.730469 Z M 287.535156 277.46875 " fill-opacity="1" fill-rule="nonzero"/></g></svg>